<mxfile host="app.diagrams.net" modified="2024-06-25T20:54:57.046Z" agent="Mozilla/5.0 (X11; Linux x86_64) AppleWebKit/537.36 (KHTML, like Gecko) Chrome/119.0.0.0 Safari/537.36 OPR/105.0.0.0" etag="2rOSg81Og6Kt8hmUQfZe" version="24.6.3" type="github">
  <diagram name="Page-1" id="V6mkVSIVso877O4ECd_N">
    <mxGraphModel dx="1432" dy="877" grid="1" gridSize="10" guides="1" tooltips="1" connect="1" arrows="1" fold="1" page="1" pageScale="1" pageWidth="850" pageHeight="1100" math="0" shadow="0">
      <root>
        <mxCell id="0" />
        <mxCell id="1" parent="0" />
      </root>
    </mxGraphModel>
  </diagram>
</mxfile>
